<svg width="55" height="52" viewBox="0 0 55 52" fill="none" xmlns="http://www.w3.org/2000/svg">
<g clip-path="url(#clip0)">
<path d="M28.0979 17.5217L28.0979 3.3913L49.6196 3.3913L49.6196 15.2609L51.4131 20.3478L52.6088 24.8696L51.4131 29.9565L47.8261 33.3478L41.8479 36.1739L37.6631 39L31.087 48.6087L28.0979 50.8696L3.58701 50.8696L2.39136 48.6087L4.18484 46.3478L10.1631 44.6522L12.5544 42.9565L28.0979 20.913L28.0979 17.5217Z" fill="#2D9384"/>
<path d="M52.4586 21.0042C52.2944 20.6312 52.1081 20.2673 51.9004 19.9143L51.4522 19.1507C50.6656 17.8115 50.252 16.3051 50.2504 14.7732L50.2504 3.60001C50.2504 3.04772 49.8027 2.60001 49.2504 2.60001L48.4171 2.60001L29.1671 2.60001L28.3338 2.60001C27.7815 2.60002 27.3338 3.04773 27.3338 3.60001L27.3338 20.8546C27.3342 21.207 27.2207 21.5512 27.0084 21.8409L11.5451 42.9572C11.3084 43.2801 10.963 43.5178 10.5652 43.6315L4.19253 45.4385C2.31737 45.9702 1.25312 47.8385 1.8155 49.6114C2.26535 51.0294 3.64597 52.0004 5.21186 52L25.7947 52C28.7749 51.9981 31.5229 50.4786 32.9859 48.0237L36.7058 41.7733C38.1818 39.3015 40.4866 37.3648 43.2563 36.2691L46.3335 35.0558C52.129 32.7747 54.8714 26.4836 52.4586 21.0042ZM29.1672 4.33334L48.4172 4.33334L48.4172 6.34141L29.1672 13.4637L29.1672 4.33334ZM29.1672 15.3253L48.4172 8.20301L48.4172 14.7732C48.4231 15.3408 48.4763 15.907 48.5767 16.4667L29.1672 16.4667L29.1672 15.3253ZM4.71973 47.099L7.16723 46.4057L7.16723 46.839C7.16734 47.3103 6.76905 47.6953 6.27073 47.7057L3.80123 47.7577C4.0171 47.4438 4.34183 47.2109 4.71973 47.099ZM31.3911 47.1779C30.2521 49.087 28.1132 50.2675 25.7948 50.2667L5.21198 50.2667C4.6166 50.2642 4.06569 49.9685 3.75814 49.4867L6.31106 49.4329C7.80259 49.3941 8.99277 48.2436 9.00056 46.8329L9.00056 45.8796L11.0915 45.2868C11.8873 45.0597 12.5783 44.5848 13.0522 43.9391L13.1256 43.8533L31.634 46.7705L31.3911 47.1779ZM35.1081 40.9214L32.5855 45.1603L14.2751 42.2751L28.5155 22.8271C28.9407 22.248 29.1681 21.5596 29.1672 20.8546L29.1672 20.7541L42.1903 34.8261C39.2022 36.0916 36.7206 38.2274 35.1081 40.9214ZM50.2964 29.5083C49.2517 31.2805 47.608 32.6698 45.6287 33.4533L43.9631 34.1094L29.2387 18.2L49.0387 18.2C49.2516 18.8192 49.5238 19.4189 49.8518 19.9914L50.2964 20.7549C51.9056 23.4744 51.9056 26.7888 50.2964 29.5083Z" fill="#215F56"/>
<path d="M26.7029 40.5599L21.0619 39.2267C20.5947 39.1163 20.1165 39.4031 19.9938 39.8672C19.8711 40.3313 20.1503 40.797 20.6175 40.9074L26.2585 42.2406C26.7257 42.351 27.2039 42.0643 27.3266 41.6002C27.4493 41.1361 27.1701 40.6703 26.7029 40.5599Z" fill="#215F56"/>
<path d="M38.335 33.4396L30.4661 25.9999C30.1082 25.6614 29.5278 25.6614 29.1698 25.9999C28.8118 26.3383 28.8118 26.887 29.1698 27.2255L37.0387 34.6652C37.3967 35.0037 37.9771 35.0037 38.335 34.6652C38.693 34.3268 38.693 33.778 38.335 33.4396Z" fill="#215F56"/>
<path d="M30.0822 32.5733L27.7119 30.3322C27.3539 29.9938 26.7735 29.9938 26.4155 30.3322C26.0575 30.6707 26.0575 31.2194 26.4155 31.5579L28.7859 33.7989C29.1439 34.1374 29.7243 34.1374 30.0822 33.7989C30.4402 33.4605 30.4402 32.9118 30.0822 32.5733Z" fill="#215F56"/>
<path d="M45.4399 11.6146L39.7517 13.6305C39.2972 13.7916 39.0729 14.2855 39.2506 14.7337C39.4283 15.1819 39.9407 15.4147 40.3952 15.2536L46.0834 13.2377C46.5378 13.0767 46.7622 12.5828 46.5845 12.1346C46.4068 11.6864 45.8943 11.4536 45.4399 11.6146Z" fill="#215F56"/>
<path d="M36.2442 7.33246L31.4487 9.27554C31.0011 9.45693 30.7998 9.9606 30.9993 10.4005C31.1987 10.8405 31.7232 11.05 32.1709 10.8686L36.9663 8.92556C37.414 8.74417 37.6152 8.2405 37.4158 7.80058C37.2164 7.36065 36.6918 7.15107 36.2442 7.33246Z" fill="#215F56"/>
</g>
<defs>
<clipPath id="clip0">
<rect width="55" height="52" fill="white"/>
</clipPath>
</defs>
</svg>
