<svg width="52" height="52" viewBox="0 0 52 52" fill="none" xmlns="http://www.w3.org/2000/svg">
<g clip-path="url(#clip0)">
<path d="M24.9166 20.9445L24.5555 24.5556L25.6388 24.9167L30.3333 26.7222L32.8611 24.9167L35.75 24.5556L37.9166 24.9167L41.8888 26.3611L44.0555 26L46.2222 25.2778V23.1111L45.8611 16.6111L44.7777 12.6389L43.3333 9.3889L40.8055 6.86112L38.2777 5.05557L33.5833 3.61112L29.9722 4.33334L26.3611 6.50001L25.6388 3.25001L24.5555 1.08334H20.2222L18.4166 1.80557L19.5 6.50001L22.0277 12.6389L23.8333 16.25L24.9166 20.9445Z" fill="#EC912B"/>
<path d="M22.389 28.5278L24.1945 25.2778L24.5556 24.1945L29.9723 26.7222L36.1112 24.1945L41.889 26.7222L46.2223 25.2778L45.5001 28.5278L44.0556 34.6667L41.5278 39L37.9167 42.6111L31.4167 45.5L24.5556 46.2222L20.9445 45.5L17.6945 43.3333L14.8056 39L12.639 36.8333L10.8334 36.1111H8.30562L3.97229 37.9167L1.80562 39L0.72229 37.9167V33.9445L3.97229 31.4167L8.30562 29.9722H12.639L16.9723 31.4167L19.139 30.6945L22.389 28.5278Z" fill="#EC912B"/>
<path d="M46.9442 21.9078C46.9442 4.48345 36.7634 3.12945 33.6433 3.12945C31.1589 3.17951 28.7616 4.05379 26.8283 5.61502C26.3989 4.21828 26.0928 2.85053 25.9313 2.06501C25.7543 1.19834 25.1038 0.505612 24.2499 0.274733C22.8284 -0.0582896 21.3525 -0.0877225 19.9188 0.18836C18.7473 0.434093 17.9443 1.51669 18.0491 2.70914C18.4037 6.6007 20.4827 11.1234 22.164 14.2324C22.8443 15.4771 23.3896 16.7908 23.7903 18.1515C24.0862 19.1156 24.2426 20.117 24.2544 21.1253C24.2534 22.1336 24.1126 23.1368 23.8364 24.1064C23.8314 24.1204 23.8208 24.1306 23.8166 24.145C23.396 25.6169 22.6603 26.9797 21.6605 28.139C21.6185 28.1867 21.5776 28.2364 21.5347 28.2828C21.4519 28.3736 21.3663 28.4593 21.281 28.5455C21.1776 28.6489 21.0735 28.7505 20.9671 28.8466C20.9159 28.8932 20.8648 28.9398 20.8129 28.9848C20.2923 29.4406 19.7066 29.8162 19.0752 30.0994L19.0657 30.1034C18.8804 30.1831 18.6907 30.2523 18.4976 30.3107C18.4682 30.3196 18.4386 30.3288 18.409 30.3372C18.2461 30.3831 18.0809 30.4201 17.9139 30.448C17.8743 30.4546 17.8346 30.4642 17.795 30.4697C17.6023 30.4984 17.4076 30.5134 17.2128 30.5145C16.3092 30.5144 15.4184 30.3 14.6138 29.8887C13.2275 29.2303 11.7053 28.9086 10.1711 28.9496C6.55451 28.9095 3.07762 30.3448 0.542359 32.9244C0.192661 33.3471 0.000941795 33.8781 -0.000158459 34.4266V37.5563C-0.00703505 38.3429 0.400426 39.0751 1.07241 39.484C1.14447 39.5294 1.21901 39.5708 1.29567 39.6079C2.14946 40.0042 3.15638 39.8625 3.86751 39.2457C4.58258 38.6641 5.36725 38.1737 6.20344 37.7859C7.43756 37.1665 8.79106 36.8212 10.171 36.7739C12.8441 36.7739 13.7412 38.3877 14.9824 40.6219C16.5483 43.4391 18.497 46.9455 25.0367 46.9455C25.4619 46.9455 25.8811 46.9378 26.2944 46.9223C38.3045 46.5026 45.1216 39.9887 46.6233 27.5284C46.6342 27.44 46.6421 27.3487 46.6525 27.2598C46.6894 26.9348 46.7264 26.61 46.7563 26.277C46.7893 25.9138 46.8153 25.5435 46.8393 25.171C46.8449 25.0835 46.8532 24.9987 46.8584 24.9107L46.8608 24.8784L46.8601 24.8703C46.9157 23.9136 46.9436 22.926 46.9442 21.9078ZM45.1248 26.7756C45.0797 27.1978 45.0265 27.6108 44.9686 28.0186C44.9074 28.4453 44.8394 28.8643 44.7644 29.2754C44.7119 29.5656 44.656 29.8521 44.5969 30.1349C44.4897 30.6414 44.3711 31.1349 44.2409 31.6154C44.1856 31.822 44.1313 32.0299 44.0719 32.232C43.9738 32.5649 43.8714 32.893 43.7623 33.2134C43.7393 33.2809 43.7132 33.3449 43.6897 33.4119C43.4799 34.01 43.2508 34.5864 43.0027 35.1408C42.941 35.2779 42.8756 35.4107 42.8116 35.545C42.5913 36.0073 42.3571 36.4537 42.1091 36.8844C42.0246 37.0302 41.9381 37.1735 41.8504 37.3156C41.6131 37.7005 41.3637 38.0714 41.1022 38.4282C40.9856 38.5875 40.8681 38.7459 40.7467 38.8998C40.5312 39.1736 40.3079 39.4385 40.0769 39.6944C39.8892 39.9027 39.6986 40.1077 39.501 40.3047C39.3322 40.4733 39.1607 40.6388 38.9846 40.7991C38.7032 41.0545 38.413 41.2997 38.1139 41.5347C37.9503 41.6628 37.7814 41.7851 37.6122 41.9069C37.2795 42.1457 36.941 42.3777 36.587 42.5919C36.4439 42.6787 36.2944 42.7578 36.1479 42.8406C35.808 43.032 35.4605 43.2147 35.1019 43.3845C34.9565 43.4535 34.8105 43.5219 34.6621 43.5874C34.2506 43.7683 33.8271 43.9352 33.3915 44.088C33.2704 44.1308 33.1517 44.1763 33.0289 44.217C32.5409 44.3782 32.0362 44.5201 31.5195 44.6476C31.3949 44.6785 31.2703 44.7094 31.1439 44.7384C30.6104 44.8602 30.0623 44.9647 29.4996 45.0521C29.3851 45.0698 29.2688 45.0855 29.153 45.1018C28.5628 45.1845 27.9599 45.252 27.3378 45.2971C27.2552 45.3031 27.1702 45.3062 27.0872 45.3115C26.4202 45.3542 25.7398 45.3808 25.0368 45.3808C19.4179 45.3808 17.8583 42.5751 16.3505 39.8617C15.0791 37.574 13.7649 35.2091 10.1711 35.2091C8.12137 35.2847 6.12743 35.8976 4.38921 36.9866C3.85266 37.3006 3.34122 37.6556 2.8594 38.0484C2.73801 38.1517 2.59057 38.2195 2.43324 38.2446C2.32899 38.2632 2.22217 38.2617 2.11856 38.2402C2.06273 38.2291 2.00817 38.2118 1.95591 38.1891C1.70771 38.0789 1.55248 37.8277 1.56468 37.5564V34.4268C1.56459 34.2423 1.6295 34.0638 1.74805 33.9225C3.97515 31.6879 7.01671 30.4573 10.1711 30.5146C11.4914 30.4765 12.8016 30.7545 13.9926 31.3254C14.9936 31.8211 16.0956 32.0792 17.2128 32.0795C17.4585 32.0776 17.7038 32.0601 17.9472 32.027C18.0377 32.0157 18.1273 31.9997 18.2172 31.9842C18.3645 31.9585 18.5112 31.9273 18.6571 31.8905C18.7688 31.863 18.8804 31.8368 18.991 31.8032C19.0894 31.7728 19.1866 31.7346 19.2845 31.6995C19.5595 31.6018 19.8283 31.4873 20.0894 31.3566C20.1349 31.3338 20.1808 31.3127 20.2261 31.2889C20.3938 31.2008 20.5585 31.1057 20.7218 31.0042C20.7519 30.9855 20.7815 30.9657 20.8115 30.9465C21.3323 30.6113 21.8176 30.2239 22.2599 29.7903C22.3008 29.7506 22.3421 29.7118 22.3825 29.6712C22.513 29.5398 22.6406 29.4041 22.7653 29.2644C22.8271 29.1953 22.8871 29.1235 22.9475 29.0522C23.06 28.9193 23.1728 28.7876 23.28 28.6479C23.4309 28.4519 23.5765 28.2493 23.717 28.0401C23.7912 27.9292 23.8599 27.8132 23.9308 27.6991C24.017 27.5607 24.1019 27.4215 24.1832 27.2782C24.2503 27.1596 24.3151 27.0398 24.3786 26.9183C24.4573 26.7679 24.5321 26.6144 24.6053 26.4594C24.6618 26.3397 24.7197 26.2216 24.7727 26.0996C24.8687 25.8778 24.9579 25.651 25.0422 25.421C25.0544 25.3878 25.0692 25.3562 25.0811 25.3229C25.6353 25.5552 26.1606 25.8514 26.6463 26.2052C27.5212 26.9196 28.6029 27.3332 29.7312 27.385C30.8595 27.3333 31.9411 26.9193 32.8157 26.2045C34.6464 24.6488 37.3345 24.6488 39.1651 26.2045C40.0396 26.9193 41.1213 27.3333 42.2497 27.385C43.3136 27.3468 44.338 26.9713 45.1745 26.3129C45.1596 26.4687 45.1416 26.6215 45.1248 26.7756ZM45.3151 24.3696C45.0162 24.5451 44.7327 24.7254 44.4651 24.9046C43.8424 25.4368 43.0665 25.7574 42.2498 25.8199C41.4342 25.7573 40.6597 25.437 40.0382 24.9053C37.6778 22.9951 34.3033 22.9951 31.9429 24.9053C31.3213 25.437 30.5468 25.7573 29.7313 25.8199C28.9155 25.7573 28.1408 25.4373 27.5186 24.906C26.8987 24.4574 26.2231 24.0913 25.5089 23.8168C25.7109 22.9339 25.815 22.0312 25.8193 21.1253C25.808 19.9704 25.6312 18.823 25.294 17.7183C24.8623 16.2496 24.2745 14.8316 23.5405 13.4883C21.9287 10.5083 19.9379 6.19423 19.6078 2.56711C19.5742 2.16431 19.8474 1.80011 20.2435 1.7197C21.4316 1.49157 22.6542 1.51312 23.8335 1.78315C24.1193 1.85953 24.3378 2.09031 24.3985 2.37987C24.7312 4.03059 25.1733 5.65738 25.7219 7.24942C25.8123 7.50047 26.0243 7.68816 26.2845 7.74757C26.5446 7.80699 26.8171 7.72979 27.0074 7.54283C28.773 5.77841 31.1481 4.7588 33.6433 4.69425C40.9921 4.69425 45.3794 11.1294 45.3794 21.9077C45.3794 22.7525 45.3553 23.5702 45.3151 24.3696Z" fill="#AA6315"/>
<path d="M25.0365 32.8291C25.8829 32.8291 26.5689 32.143 26.5689 31.2967C26.5689 30.4504 25.8829 29.7643 25.0365 29.7643C24.1902 29.7643 23.5042 30.4504 23.5042 31.2967C23.5042 32.143 24.1902 32.8291 25.0365 32.8291Z" stroke="#AA6315" stroke-width="1.5"/>
<path d="M38.3377 32.8291C39.184 32.8291 39.87 32.143 39.87 31.2967C39.87 30.4504 39.184 29.7643 38.3377 29.7643C37.4913 29.7643 36.8053 30.4504 36.8053 31.2967C36.8053 32.143 37.4913 32.8291 38.3377 32.8291Z" stroke="#AA6315" stroke-width="1.5"/>
<path d="M30.7741 38.1764C31.6204 38.1764 32.3064 37.4903 32.3064 36.644C32.3064 35.7977 31.6204 35.1116 30.7741 35.1116C29.9277 35.1116 29.2417 35.7977 29.2417 36.644C29.2417 37.4903 29.9277 38.1764 30.7741 38.1764Z" stroke="#AA6315" stroke-width="1.5"/>
<path d="M24.2544 41.4366C25.1007 41.4366 25.7868 40.7504 25.7868 39.9042C25.7868 39.0579 25.1008 38.3717 24.2544 38.3717C23.4081 38.3717 22.722 39.0579 22.722 39.9042C22.722 40.7504 23.4081 41.4366 24.2544 41.4366Z" stroke="#AA6315" stroke-width="1.5"/>
</g>
<defs>
<clipPath id="clip0">
<rect width="52" height="52" fill="white"/>
</clipPath>
</defs>
</svg>
