<svg width="53" height="53" viewBox="0 0 53 53" fill="none" xmlns="http://www.w3.org/2000/svg">
<path d="M5.43588 23.782L10.8718 34.6538L12.2307 38.7308L14.9487 43.4872L16.3077 46.6842L19.0256 49.6025H21.7436L23.1025 46.8846V41.4487V36.6923L23.782 33.9743L25.141 33.2949H26.5L27.1795 33.9743L27.859 36.0128V39.4102V46.8846L29.8974 49.6025H32.6154L35.3333 46.8846L37.3718 42.1282L40.7692 34.6538L44.1666 27.1795L46.8846 20.3846V14.9487L44.8461 9.5128L40.7692 5.43588L36.6923 4.0769H31.2564L27.859 6.11537L25.8205 6.79485L23.1025 6.11537L20.3846 4.75639L16.3077 4.0769H12.9102L8.83331 6.11537L6.11537 9.5128L4.0769 14.2692V20.3846L5.43588 23.782Z" fill="#4474D1"/>
<path d="M6.58024 27.9595C8.85151 32.4129 10.574 36.4489 11.9578 39.6943C14.874 46.5328 16.6339 50.6602 20.013 50.6602C23.5973 50.6602 23.9893 47.8585 23.9893 41.9123C23.9893 34.5577 24.7098 33.9597 25.5799 33.9597C26.4499 33.9597 27.1704 34.5577 27.1704 41.9123C27.1704 47.8585 27.5624 50.6602 31.1467 50.6602C34.5258 50.6602 36.2857 46.5328 39.2019 39.6943C40.5857 36.4489 42.3082 32.4105 44.5795 27.9595L44.8459 27.4378C46.2567 24.6965 47.8472 21.5886 47.8472 18.0545C47.8472 9.58172 42.2581 2.94446 35.123 2.94446C32.3726 2.97582 29.701 3.86738 27.4829 5.49407C26.9158 5.86043 26.255 6.05531 25.5799 6.05531C24.9047 6.05531 24.2439 5.86043 23.6768 5.49407C21.4588 3.86738 18.7871 2.97582 16.0367 2.94446C8.90161 2.94446 3.3125 9.58172 3.3125 18.0545C3.3125 21.5886 4.907 24.6965 6.31382 27.4386L6.58024 27.9595ZM16.0367 4.53498C18.4389 4.56096 20.7729 5.33791 22.7113 6.75695C25.0594 8.30607 27.8256 9.09897 30.6377 9.02901C32.362 9.01907 34.0749 8.7666 35.7264 8.28009C36.1435 8.15723 36.3641 7.70935 36.2267 7.29685C36.0866 6.87637 35.629 6.65485 35.2043 6.78139C33.0481 7.42374 30.7783 7.59357 28.5502 7.27906C28.3092 7.24505 28.2534 6.90287 28.4476 6.75615C30.3864 5.33724 32.7206 4.56056 35.123 4.53498C41.3666 4.53498 46.2567 10.4732 46.2567 18.0545C46.2567 21.2045 44.7552 24.1303 43.4311 26.7117L43.1623 27.2358C40.8664 31.7369 39.1327 35.8031 37.7394 39.0701C35.1715 45.0934 33.4752 49.0697 31.1467 49.0697C29.4154 49.0697 28.7609 48.4526 28.7609 41.9123C28.7609 35.1828 28.3187 32.3692 25.5799 32.3692C22.841 32.3692 22.3988 35.1828 22.3988 41.9123C22.3988 48.4526 21.7443 49.0697 20.013 49.0697C17.6845 49.0697 15.9882 45.0934 13.4203 39.0701C12.027 35.8031 10.2933 31.7369 7.99739 27.2358L7.7286 26.7117C6.40448 24.1303 4.90303 21.2045 4.90303 18.0545C4.90303 10.4732 9.7931 4.53498 16.0367 4.53498Z" fill="#0F3277"/>
<path d="M7.32455 17.5557L7.28914 18.0545L7.32455 17.5557C7.15648 17.5438 7.04686 17.4013 7.06278 17.2573C7.49641 13.3365 8.98737 10.7824 10.7341 9.16533C12.4888 7.54089 14.5302 6.8357 16.0938 6.66687C16.1984 6.65559 16.3319 6.74099 16.3319 6.92078C16.3319 7.08008 16.1927 7.25939 15.97 7.2926C14.9235 7.4486 13.0689 7.92562 11.3583 9.38669C9.63644 10.8573 8.10649 13.2862 7.66007 17.2581C7.63906 17.445 7.48037 17.5668 7.32455 17.5557Z" stroke="#0F3277" stroke-linecap="round" stroke-linejoin="round"/>
<path d="M44.6004 18.8448C44.6579 18.4093 44.3097 18.0544 43.8705 18.0544C43.4313 18.0544 43.0593 18.4085 42.9907 18.8423C42.7858 20.14 42.0857 22.9395 39.7013 26.4834C39.4561 26.8478 39.5367 27.3456 39.8942 27.6008C40.2517 27.856 40.7504 27.7721 40.9961 27.4081C43.7066 23.3929 44.4153 20.2469 44.6004 18.8448Z" fill="#0F3277"/>
<circle cx="7.45312" cy="19.875" r="0.828125" fill="#0F3277"/>
</svg>
