<svg width="49" height="49" viewBox="0 0 49 49" fill="none" xmlns="http://www.w3.org/2000/svg">
<path d="M0.753784 27.1385V22.9923L1.13071 21.1077L3.01532 20.3538L4.52302 21.8615L6.03071 22.9923L7.91532 21.8615L9.04609 19.2231L10.9307 14.7L9.42302 12.0615L7.91532 12.8154L6.03071 12.0615V10.1769L7.91532 7.16154L10.9307 5.65384L12.8153 7.16154L12.0615 9.8L15.0769 11.3077L19.5999 9.04615L22.2384 7.16154V5.65384L20.7307 4.14615V2.26154L22.6153 1.13077H26.3846L28.2692 2.26154L27.5153 4.14615L26.3846 5.65384V7.16154L27.5153 7.91538L34.6769 11.3077L36.9384 9.04615L36.1846 7.16154L38.823 5.65384L42.9692 10.1769V12.0615L41.4615 12.8154L39.5769 12.0615L37.6922 14.7L40.3307 20.3538L42.2153 22.9923L44.0999 21.8615L45.6076 20.3538L47.8692 21.1077V27.1385L46.3615 28.6462L44.8538 28.2692L44.0999 26.3846H41.4615L40.3307 28.2692L37.6922 35.0538L39.5769 36.9385L40.7076 36.1846L42.9692 36.9385V39.2L38.823 42.9692H36.9384L36.1846 41.4615L36.9384 39.9538L34.6769 38.0692L26.3846 41.4615V44.1L28.2692 44.8538V46.3615L27.5153 48.2462H24.8769L20.7307 47.4923V45.2308L22.2384 44.1V41.4615L20.7307 40.7077L16.5846 39.2L14.323 38.0692L12.8153 39.2L12.0615 40.7077L12.8153 42.5923L10.9307 42.9692L9.42302 42.5923L7.91532 40.7077L6.03071 38.0692C6.40763 37.441 7.31225 36.1846 7.91532 36.1846C8.5184 36.1846 9.17173 36.6872 9.42302 36.9385L11.3076 34.3L9.04609 30.1538L7.91532 26.3846H5.27686L3.76917 28.6462H1.88455L0.753784 27.1385Z" fill="#EC912B"/>
<path d="M26.6533 49H22.3467C20.7636 49 19.4756 47.712 19.4756 46.1289C19.4756 44.7936 20.3919 43.6682 21.6289 43.3486V42.1575C21.6289 41.8852 21.4311 41.6493 21.1584 41.5963C18.8661 41.1508 16.7194 40.2617 14.7782 38.9538C14.5458 38.797 14.2374 38.8232 14.0446 39.0158L13.195 39.8653C13.7876 40.8968 13.7127 42.2257 12.9335 43.1561C12.4154 43.7746 11.6582 44.1496 10.8558 44.1849C10.0535 44.2194 9.26674 43.9148 8.69865 43.3468L5.65328 40.3015C5.11103 39.7593 4.81243 39.0384 4.81243 38.2714C4.81243 37.5044 5.11103 36.7834 5.65328 36.2411C6.19563 35.6989 6.91656 35.4003 7.68353 35.4003C8.20501 35.4003 8.70535 35.5383 9.14252 35.7972L9.98432 34.9554C10.177 34.7628 10.203 34.4543 10.0463 34.2218C8.73837 32.2806 7.84928 30.1339 7.40379 27.8417C7.35077 27.5689 7.11476 27.3711 6.84258 27.3711H5.65251C5.52255 27.8799 5.25362 28.344 4.86478 28.7194C4.29898 29.2654 3.5548 29.5492 2.76726 29.5227C1.21553 29.4674 0 28.1869 0 26.6075V22.3467C0 21.5616 0.310844 20.8286 0.875301 20.2827C1.43976 19.737 2.18462 19.451 2.96871 19.4773C4.23831 19.5196 5.31133 20.4293 5.63921 21.6289H6.84249C7.11476 21.6289 7.35077 21.4311 7.40369 21.1584C7.84919 18.8661 8.73827 16.7194 10.0462 14.7782C10.2029 14.5457 10.1768 14.2372 9.98423 14.0446L9.14242 13.2028C8.70525 13.4617 8.20492 13.5997 7.68343 13.5997C6.91646 13.5997 6.19553 13.3011 5.65318 12.7589C4.53374 11.6394 4.53374 9.8179 5.65318 8.69836L8.69846 5.65318C9.8179 4.53365 11.6393 4.53384 12.7589 5.65318C13.3011 6.19553 13.5997 6.91646 13.5997 7.68343C13.5997 8.20482 13.4617 8.70516 13.2028 9.14242L14.0446 9.98423C14.2374 10.177 14.5457 10.2029 14.7781 10.0462C16.7194 8.73827 18.8661 7.84919 21.1583 7.40369C21.4311 7.35067 21.6289 7.11467 21.6289 6.84249V5.65137C20.3919 5.33181 19.4756 4.20644 19.4756 2.87109C19.4756 1.28797 20.7636 0 22.3467 0H26.6533C28.2364 0 29.5244 1.28797 29.5244 2.87109C29.5244 4.20644 28.6081 5.33181 27.3711 5.65137V6.84249C27.3711 7.11476 27.5689 7.35077 27.8416 7.40369C30.1339 7.84919 32.2806 8.73827 34.2218 10.0462C34.4542 10.2029 34.7627 10.1769 34.9554 9.98423L35.7979 9.14175C35.1492 8.04088 35.297 6.59729 36.2411 5.65318C37.3605 4.53384 39.182 4.53365 40.3015 5.65318L43.3468 8.69836C44.4663 9.8178 44.4663 11.6393 43.3468 12.7589C42.8045 13.3011 42.0835 13.5997 41.3166 13.5997C40.7952 13.5997 40.2948 13.4617 39.8576 13.2028L39.0158 14.0446C38.8231 14.2372 38.7971 14.5457 38.9538 14.7782C40.2617 16.7194 41.1508 18.8661 41.5963 21.1583C41.6493 21.4311 41.8853 21.6289 42.1575 21.6289H43.3588C43.6691 20.4804 44.6619 19.5937 45.8708 19.487H45.8709C46.6748 19.4153 47.4752 19.6864 48.0675 20.2288C48.6601 20.7714 49 21.5433 49 22.3467V26.6533C49 27.4567 48.6601 28.2286 48.0675 28.7712C47.4752 29.3136 46.6738 29.5838 45.8709 29.513C44.6619 29.4063 43.6691 28.5196 43.3588 27.3711H42.1575C41.8852 27.3711 41.6493 27.5689 41.5963 27.8416C41.1508 30.1339 40.2617 32.2806 38.9538 34.2218C38.7971 34.4543 38.8232 34.7628 39.0158 34.9554L39.8576 35.7972C40.2948 35.5383 40.7952 35.4003 41.3166 35.4003C42.0835 35.4003 42.8045 35.6989 43.3468 36.2411C43.8891 36.7834 44.1877 37.5044 44.1877 38.2714C44.1877 39.0384 43.8891 39.7593 43.3467 40.3015L40.3015 43.3468C39.7334 43.9149 38.9476 44.2204 38.1443 44.1849C37.3419 44.1496 36.5847 43.7746 36.0666 43.1562C35.2874 42.2257 35.2123 40.8969 35.8051 39.8653L34.9555 39.0158C34.7628 38.8231 34.4544 38.797 34.222 38.9538C32.2807 40.2617 30.134 41.1508 27.8418 41.5963C27.569 41.6493 27.3712 41.8853 27.3712 42.1575V43.3486C28.6082 43.6682 29.5245 44.7936 29.5245 46.1289C29.5244 47.712 28.2364 49 26.6533 49ZM14.4473 36.9385C14.9328 36.9385 15.4215 37.0791 15.8479 37.3664C17.5749 38.5301 19.4846 39.3212 21.5236 39.7174C22.6936 39.9447 23.543 40.9709 23.543 42.1575V43.9756C23.543 44.6353 23.0064 45.1719 22.3467 45.1719C21.819 45.1719 21.3896 45.6012 21.3896 46.1289C21.3896 46.6566 21.819 47.0859 22.3467 47.0859H26.6533C27.181 47.0859 27.6104 46.6566 27.6104 46.1289C27.6104 45.6012 27.181 45.1719 26.6533 45.1719C25.9936 45.1719 25.457 44.6353 25.457 43.9756V42.1575C25.457 40.971 26.3064 39.9447 27.4766 39.7174C29.5155 39.3211 31.4252 38.5301 33.1523 37.3664C34.1426 36.6992 35.4702 36.8235 36.3089 37.6623L37.6253 38.9787C38.0748 39.4283 38.0748 40.1598 37.6253 40.6093C37.2606 40.974 37.2205 41.5528 37.5339 41.9272C37.7107 42.138 37.9574 42.2608 38.2286 42.2727C38.5017 42.284 38.756 42.1856 38.9482 41.9934L41.9934 38.9481C42.1743 38.7673 42.2737 38.5271 42.2737 38.2715C42.2737 38.0158 42.1742 37.7755 41.9934 37.5948C41.6202 37.2216 41.013 37.2218 40.6399 37.5948L40.6093 37.6254C40.1599 38.0749 39.4283 38.075 38.9787 37.6254L37.6623 36.309C36.8236 35.4703 36.6992 34.1427 37.3664 33.1524C38.5301 31.4253 39.3212 29.5156 39.7174 27.4766C39.9447 26.3064 40.9709 25.457 42.1575 25.457H44.0187C44.6545 25.457 45.1719 25.9743 45.1719 26.6102C45.1719 27.1259 45.5528 27.5635 46.0391 27.6064C46.313 27.6304 46.5746 27.5429 46.7747 27.3595C46.9754 27.1759 47.0858 26.925 47.0858 26.6533V22.3467C47.0858 22.075 46.9754 21.8241 46.7747 21.6405C46.5744 21.4569 46.3118 21.3692 46.0391 21.3936C45.5528 21.4365 45.1719 21.8741 45.1719 22.3898C45.1719 23.0256 44.6546 23.543 44.0187 23.543H42.1575C40.971 23.543 39.9447 22.6936 39.7174 21.5234C39.3211 19.4845 38.5301 17.5748 37.3664 15.8477C36.6991 14.8573 36.8236 13.5297 37.6623 12.6911L38.9481 11.4053C39.4147 10.9389 40.1735 10.939 40.64 11.4053C41.0131 11.7784 41.6203 11.7786 41.9935 11.4053C42.3666 11.0322 42.3666 10.425 41.9935 10.0518L38.9482 7.00662C38.5753 6.63366 37.9681 6.63328 37.5948 7.00662C37.2216 7.37967 37.2216 7.9869 37.5948 8.36005C38.0612 8.82651 38.0612 9.58553 37.5948 10.052L36.309 11.3378C35.4702 12.1765 34.1427 12.3009 33.1523 11.6337C31.4253 10.47 29.5156 9.67894 27.4766 9.28273C26.3064 9.05533 25.457 8.02911 25.457 6.84249V5.02441C25.457 4.36473 25.9936 3.82812 26.6533 3.82812C27.181 3.82812 27.6104 3.3988 27.6104 2.87109C27.6104 2.34339 27.181 1.91406 26.6533 1.91406H22.3467C21.819 1.91406 21.3896 2.34339 21.3896 2.87109C21.3896 3.3988 21.819 3.82812 22.3467 3.82812C23.0064 3.82812 23.543 4.36473 23.543 5.02441V6.84249C23.543 8.02901 22.6936 9.05533 21.5234 9.28263C19.4845 9.67894 17.5748 10.4699 15.8477 11.6336C14.8574 12.3008 13.5298 12.1765 12.6911 11.3377L11.4053 10.0519C11.1795 9.82594 11.055 9.52552 11.055 9.20597C11.055 8.88623 11.1796 8.58572 11.4057 8.35976C11.7786 7.9869 11.7786 7.37967 11.4053 7.00652C11.0322 6.63318 10.4249 6.63337 10.0519 7.00652L7.00662 10.0517C6.63347 10.4248 6.63347 11.032 7.00662 11.4052C7.1874 11.586 7.42771 11.6855 7.68333 11.6855C7.93896 11.6855 8.17927 11.5861 8.35995 11.4053C8.82632 10.9388 9.58534 10.9389 10.0519 11.4052L11.3377 12.691C12.1764 13.5297 12.3008 14.8573 11.6336 15.8476C10.4699 17.5747 9.67884 19.4844 9.28263 21.5234C9.05533 22.6936 8.02911 23.543 6.84249 23.543H4.97427C4.34224 23.543 3.82812 23.0289 3.82812 22.3968C3.82812 21.8588 3.41392 21.4072 2.90488 21.3902C2.64294 21.3806 2.39392 21.4765 2.20596 21.6587C2.01771 21.8406 1.91406 22.085 1.91406 22.3467V26.6075C1.91406 27.1421 2.32731 27.5917 2.8353 27.6098C3.09896 27.6194 3.34703 27.5241 3.53547 27.3422C3.72419 27.1601 3.82812 26.9154 3.82812 26.6533C3.82812 25.9936 4.36473 25.457 5.02441 25.457H6.84249C8.02901 25.457 9.05533 26.3064 9.28263 27.4766C9.67894 29.5155 10.4699 31.4252 11.6336 33.1523C12.3009 34.1427 12.1764 35.4703 11.3377 36.3089L10.0213 37.6253C9.57175 38.0749 8.84019 38.0748 8.39068 37.6253L8.36005 37.5947C8.17927 37.4138 7.93905 37.3144 7.68343 37.3144C7.42781 37.3144 7.1874 37.4139 7.00671 37.5947C6.82593 37.7755 6.7264 38.0157 6.7264 38.2714C6.7264 38.527 6.82583 38.7673 7.00662 38.948L10.052 41.9933C10.2442 42.1854 10.5003 42.2847 10.7715 42.2726C11.0427 42.2607 11.2894 42.1379 11.4662 41.927C11.7796 41.5528 11.7395 40.974 11.3749 40.6092C10.9253 40.1597 10.9253 39.4282 11.3748 38.9786L12.6912 37.6622C13.1688 37.1846 13.8052 36.9385 14.4473 36.9385Z" fill="#AA6315"/>
<path d="M20.8036 20.4688C18.5872 20.4688 16.7841 18.6656 16.7841 16.4492C16.7841 14.2329 18.5872 12.4297 20.8036 12.4297C23.02 12.4297 24.8231 14.2329 24.8231 16.4492C24.8231 18.6656 23.02 20.4688 20.8036 20.4688ZM20.8036 14.3438C19.6426 14.3438 18.6981 15.2883 18.6981 16.4492C18.6981 17.6102 19.6426 18.5547 20.8036 18.5547C21.9646 18.5547 22.9091 17.6102 22.9091 16.4492C22.9091 15.2883 21.9646 14.3438 20.8036 14.3438Z" fill="#AA6315"/>
<path d="M18.0881 34.0517C16.1708 34.0517 14.611 32.4918 14.611 30.5745C14.611 28.6572 16.1708 27.0972 18.0881 27.0972C20.0055 27.0972 21.5653 28.6572 21.5653 30.5745C21.5653 32.4918 20.0055 34.0517 18.0881 34.0517ZM18.0881 29.0113C17.2262 29.0113 16.525 29.7125 16.525 30.5745C16.525 31.4364 17.2262 32.1376 18.0881 32.1376C18.95 32.1376 19.6513 31.4364 19.6513 30.5745C19.6513 29.7125 18.95 29.0113 18.0881 29.0113Z" fill="#AA6315"/>
<path d="M31.183 33.0994C28.1837 33.0994 25.66 30.8557 25.3127 27.8803C25.2514 27.3553 25.6274 26.8801 26.1523 26.8187C26.6774 26.7579 27.1525 27.1333 27.2139 27.6584C27.4485 29.6692 29.1549 31.1854 31.183 31.1854C33.3866 31.1854 35.1795 29.3926 35.1795 27.1889C35.1795 25.1479 33.6525 23.4402 31.6275 23.2168C31.1022 23.1589 30.7232 22.6859 30.7812 22.1606C30.8392 21.6352 31.3126 21.2573 31.8374 21.3143C34.8339 21.6449 37.0936 24.1705 37.0936 27.1889C37.0936 30.448 34.4421 33.0994 31.183 33.0994Z" fill="#AA6315"/>
<path d="M27.67 24.6551C27.4183 24.6551 27.1714 24.5527 26.9934 24.3746C26.8154 24.1966 26.713 23.9497 26.713 23.698C26.713 23.4453 26.8153 23.1994 26.9934 23.0205C27.1714 22.8424 27.4183 22.741 27.67 22.741C27.9217 22.741 28.1687 22.8424 28.3466 23.0205C28.5246 23.1994 28.6271 23.4454 28.6271 23.698C28.6271 23.9497 28.5247 24.1956 28.3466 24.3746C28.1687 24.5527 27.9217 24.6551 27.67 24.6551Z" fill="#AA6315"/>
</svg>
