<svg width="42" height="42" viewBox="0 0 42 42" fill="none" xmlns="http://www.w3.org/2000/svg">
<g filter="url(#filter0_i)">
<path d="M21.0002 39.9578C32.0458 39.9578 41 31.013 41 19.9789C41 8.94485 32.0458 0 21.0002 0C9.95467 0 1.00049 8.94485 1.00049 19.9789C1.00049 31.013 9.95467 39.9578 21.0002 39.9578Z" fill="#F3F8FF"/>
</g>
<g filter="url(#filter1_d)">
<path fill-rule="evenodd" clip-rule="evenodd" d="M9.43552 18.5097C5.6631 17.8621 2.27803 20.3637 1 21.0193C1.05717 21.7626 1.36207 24.4311 1.81941 25.7844C2.61168 28.1288 4.97883 33.1285 9.20613 36.2423C13.4334 39.3561 19.889 40.7331 25.3943 39.5201C30.8995 38.3074 34.8648 34.5707 37.0603 31.8501C38.8167 29.6738 39.9515 26.3959 40.3121 25.0411C40.2929 24.8885 39.4423 20.931 37.9778 17.1331C36.2083 12.5442 33.8161 10.4136 33.0297 9.82363C31.6447 8.7847 30.7029 8.5453 29.72 8.64364C29.3158 8.72012 28.3043 9.10251 27.4916 10.0203C26.4757 11.1675 26.0169 11.987 23.8214 15.068C22.9038 16.3557 18.9715 18.2147 18.0539 18.5097C17.0321 18.8382 13.8266 19.2635 9.43552 18.5097Z" fill="#A8DBFF" fill-opacity="0.5"/>
<path fill-rule="evenodd" clip-rule="evenodd" d="M9.43552 18.5097C5.6631 17.8621 2.27803 20.3637 1 21.0193C1.05717 21.7626 1.36207 24.4311 1.81941 25.7844C2.61168 28.1288 4.97883 33.1285 9.20613 36.2423C13.4334 39.3561 19.889 40.7331 25.3943 39.5201C30.8995 38.3074 34.8648 34.5707 37.0603 31.8501C38.8167 29.6738 39.9515 26.3959 40.3121 25.0411C40.2929 24.8885 39.4423 20.931 37.9778 17.1331C36.2083 12.5442 33.8161 10.4136 33.0297 9.82363C31.6447 8.7847 30.7029 8.5453 29.72 8.64364C29.3158 8.72012 28.3043 9.10251 27.4916 10.0203C26.4757 11.1675 26.0169 11.987 23.8214 15.068C22.9038 16.3557 18.9715 18.2147 18.0539 18.5097C17.0321 18.8382 13.8266 19.2635 9.43552 18.5097Z" fill="url(#paint0_linear)"/>
</g>
<g filter="url(#filter2_i)">
<path fill-rule="evenodd" clip-rule="evenodd" d="M5.78859 22.7344C4.68895 22.3939 2.15584 21.2341 1.04309 20.6885L1.10019 21.6214L1.174 22.5707C1.37037 24.0769 1.6839 24.8281 1.93756 25.9627C2.2611 27.4099 4.1195 30.8549 5.49407 32.6559C6.70734 34.2455 8.69369 35.8659 10.711 37.1778C12.4428 38.3044 17.9105 40.0972 21.673 39.9959C25.2128 39.9007 28.8943 38.7137 33.0835 35.8649C37.2726 33.0161 39.1818 28.4572 39.7909 26.7815C40.3568 25.2246 40.8566 22.7448 40.9137 21.5453L35.1452 19.1652L32.7562 18.2157C30.1051 17.2007 27.8994 16.4279 26.5379 16.0874C24.836 15.6616 22.9378 15.5962 21.7596 15.7271C20.8171 15.8319 19.5341 16.5785 19.0106 16.9386C18.6288 17.2553 17.6425 18.124 16.7523 19.0671C15.6396 20.2459 14.1669 21.5883 12.1377 22.538C10.1087 23.4875 7.16314 23.1601 5.78859 22.7344Z" fill="#56A4D2" fill-opacity="0.5"/>
<path fill-rule="evenodd" clip-rule="evenodd" d="M5.78859 22.7344C4.68895 22.3939 2.15584 21.2341 1.04309 20.6885L1.10019 21.6214L1.174 22.5707C1.37037 24.0769 1.6839 24.8281 1.93756 25.9627C2.2611 27.4099 4.1195 30.8549 5.49407 32.6559C6.70734 34.2455 8.69369 35.8659 10.711 37.1778C12.4428 38.3044 17.9105 40.0972 21.673 39.9959C25.2128 39.9007 28.8943 38.7137 33.0835 35.8649C37.2726 33.0161 39.1818 28.4572 39.7909 26.7815C40.3568 25.2246 40.8566 22.7448 40.9137 21.5453L35.1452 19.1652L32.7562 18.2157C30.1051 17.2007 27.8994 16.4279 26.5379 16.0874C24.836 15.6616 22.9378 15.5962 21.7596 15.7271C20.8171 15.8319 19.5341 16.5785 19.0106 16.9386C18.6288 17.2553 17.6425 18.124 16.7523 19.0671C15.6396 20.2459 14.1669 21.5883 12.1377 22.538C10.1087 23.4875 7.16314 23.1601 5.78859 22.7344Z" fill="url(#paint1_linear)" fill-opacity="0.7"/>
</g>
<g filter="url(#filter3_d)">
<path fill-rule="evenodd" clip-rule="evenodd" d="M8.689 22.5621C4.59774 22.2749 2.00138 22.6818 1.2146 22.921C1.30202 23.4106 1.52683 24.6854 1.89481 25.8912C2.35232 27.3904 3.6635 30.2022 4.78789 31.602C5.91226 33.0016 6.32365 33.9229 9.42476 36.2149C13.1993 39.0046 18.3845 40.0131 22.8834 39.8016C26.3584 39.6384 30.2599 37.672 31.735 36.7256C33.2103 35.7793 36.071 33.6235 38.2673 30.0662C40.5167 26.4231 40.9038 22.2645 40.9552 21.5454C40.9934 21.014 41.0315 19.2491 40.9552 18.4521C40.5072 18.4412 39.2799 18.3975 37.8982 18.6134C36.2262 18.8744 35.1117 19.6577 34.2594 20.1797C33.407 20.7019 31.899 21.6156 29.1453 22.921C26.3915 24.2265 22.1298 24.1612 19.2122 23.9328C16.2946 23.7043 13.803 22.921 8.689 22.5621Z" fill="#1670A4" fill-opacity="0.5"/>
<path fill-rule="evenodd" clip-rule="evenodd" d="M8.689 22.5621C4.59774 22.2749 2.00138 22.6818 1.2146 22.921C1.30202 23.4106 1.52683 24.6854 1.89481 25.8912C2.35232 27.3904 3.6635 30.2022 4.78789 31.602C5.91226 33.0016 6.32365 33.9229 9.42476 36.2149C13.1993 39.0046 18.3845 40.0131 22.8834 39.8016C26.3584 39.6384 30.2599 37.672 31.735 36.7256C33.2103 35.7793 36.071 33.6235 38.2673 30.0662C40.5167 26.4231 40.9038 22.2645 40.9552 21.5454C40.9934 21.014 41.0315 19.2491 40.9552 18.4521C40.5072 18.4412 39.2799 18.3975 37.8982 18.6134C36.2262 18.8744 35.1117 19.6577 34.2594 20.1797C33.407 20.7019 31.899 21.6156 29.1453 22.921C26.3915 24.2265 22.1298 24.1612 19.2122 23.9328C16.2946 23.7043 13.803 22.921 8.689 22.5621Z" fill="url(#paint2_linear)" fill-opacity="0.4"/>
</g>
<g filter="url(#filter4_di)">
<path fill-rule="evenodd" clip-rule="evenodd" d="M7.70429 20.849C5.51867 21.6628 2.52345 22.8445 1.34387 23.6319C1.59509 24.5399 1.89644 26.3244 2.63952 27.8871C3.35687 29.3958 5.11651 33.3255 9.34261 36.2715C13.242 38.99 18.9565 40.365 23.2557 39.8512C27.816 39.3063 31.0678 37.4851 33.9259 35.2336C36.2123 33.4322 37.9843 30.6158 38.7655 29.1656C37.4439 29.0563 34.2122 28.6455 31.7219 27.9367C28.6092 27.0508 25.8895 25.3117 24.3169 24.3929C22.7439 23.4741 19.5329 21.4397 16.5184 20.6192C13.5039 19.7989 10.26 19.8973 7.70429 20.849Z" fill="#002F5C" fill-opacity="0.6"/>
<path fill-rule="evenodd" clip-rule="evenodd" d="M7.70429 20.849C5.51867 21.6628 2.52345 22.8445 1.34387 23.6319C1.59509 24.5399 1.89644 26.3244 2.63952 27.8871C3.35687 29.3958 5.11651 33.3255 9.34261 36.2715C13.242 38.99 18.9565 40.365 23.2557 39.8512C27.816 39.3063 31.0678 37.4851 33.9259 35.2336C36.2123 33.4322 37.9843 30.6158 38.7655 29.1656C37.4439 29.0563 34.2122 28.6455 31.7219 27.9367C28.6092 27.0508 25.8895 25.3117 24.3169 24.3929C22.7439 23.4741 19.5329 21.4397 16.5184 20.6192C13.5039 19.7989 10.26 19.8973 7.70429 20.849Z" fill="url(#paint3_linear)"/>
</g>
<defs>
<filter id="filter0_i" x="1.00049" y="0" width="40.1773" height="40.1356" filterUnits="userSpaceOnUse" color-interpolation-filters="sRGB">
<feFlood flood-opacity="0" result="BackgroundImageFix"/>
<feBlend mode="normal" in="SourceGraphic" in2="BackgroundImageFix" result="shape"/>
<feColorMatrix in="SourceAlpha" type="matrix" values="0 0 0 0 0 0 0 0 0 0 0 0 0 0 0 0 0 0 127 0" result="hardAlpha"/>
<feOffset dx="0.177799" dy="0.177799"/>
<feGaussianBlur stdDeviation="0.0888993"/>
<feComposite in2="hardAlpha" operator="arithmetic" k2="-1" k3="1"/>
<feColorMatrix type="matrix" values="0 0 0 0 0.852222 0 0 0 0 0.858241 0 0 0 0 0.866667 0 0 0 1 0"/>
<feBlend mode="normal" in2="shape" result="effect1_innerShadow"/>
</filter>
<filter id="filter1_d" x="0.0665578" y="7.68997" width="41.5345" height="33.5569" filterUnits="userSpaceOnUse" color-interpolation-filters="sRGB">
<feFlood flood-opacity="0" result="BackgroundImageFix"/>
<feColorMatrix in="SourceAlpha" type="matrix" values="0 0 0 0 0 0 0 0 0 0 0 0 0 0 0 0 0 0 127 0"/>
<feOffset dx="0.177799" dy="0.177799"/>
<feGaussianBlur stdDeviation="0.55562"/>
<feColorMatrix type="matrix" values="0 0 0 0 0.8125 0 0 0 0 0.8125 0 0 0 0 0.8125 0 0 0 0.5 0"/>
<feBlend mode="normal" in2="BackgroundImageFix" result="effect1_dropShadow"/>
<feBlend mode="normal" in="SourceGraphic" in2="effect1_dropShadow" result="shape"/>
</filter>
<filter id="filter2_i" x="1.04309" y="15.6667" width="39.915" height="24.3777" filterUnits="userSpaceOnUse" color-interpolation-filters="sRGB">
<feFlood flood-opacity="0" result="BackgroundImageFix"/>
<feBlend mode="normal" in="SourceGraphic" in2="BackgroundImageFix" result="shape"/>
<feColorMatrix in="SourceAlpha" type="matrix" values="0 0 0 0 0 0 0 0 0 0 0 0 0 0 0 0 0 0 127 0" result="hardAlpha"/>
<feOffset dx="0.0444496" dy="0.0444496"/>
<feGaussianBlur stdDeviation="0.0444496"/>
<feComposite in2="hardAlpha" operator="arithmetic" k2="-1" k3="1"/>
<feColorMatrix type="matrix" values="0 0 0 0 0.556233 0 0 0 0 0.725021 0 0 0 0 0.829167 0 0 0 1 0"/>
<feBlend mode="normal" in2="shape" result="effect1_innerShadow"/>
</filter>
<filter id="filter3_d" x="1.2146" y="18.4411" width="40.1403" height="21.7433" filterUnits="userSpaceOnUse" color-interpolation-filters="sRGB">
<feFlood flood-opacity="0" result="BackgroundImageFix"/>
<feColorMatrix in="SourceAlpha" type="matrix" values="0 0 0 0 0 0 0 0 0 0 0 0 0 0 0 0 0 0 127 0"/>
<feOffset dx="0.177799" dy="0.177799"/>
<feGaussianBlur stdDeviation="0.0888993"/>
<feColorMatrix type="matrix" values="0 0 0 0 0 0 0 0 0 0 0 0 0 0 0 0 0 0 0.25 0"/>
<feBlend mode="normal" in2="BackgroundImageFix" result="effect1_dropShadow"/>
<feBlend mode="normal" in="SourceGraphic" in2="effect1_dropShadow" result="shape"/>
</filter>
<filter id="filter4_di" x="1.25497" y="19.975" width="37.6883" height="20.1602" filterUnits="userSpaceOnUse" color-interpolation-filters="sRGB">
<feFlood flood-opacity="0" result="BackgroundImageFix"/>
<feColorMatrix in="SourceAlpha" type="matrix" values="0 0 0 0 0 0 0 0 0 0 0 0 0 0 0 0 0 0 127 0"/>
<feOffset dx="0.0888993" dy="0.0888993"/>
<feGaussianBlur stdDeviation="0.0444496"/>
<feColorMatrix type="matrix" values="0 0 0 0 0 0 0 0 0 0.133843 0 0 0 0 0.245833 0 0 0 0.5 0"/>
<feBlend mode="normal" in2="BackgroundImageFix" result="effect1_dropShadow"/>
<feBlend mode="normal" in="SourceGraphic" in2="effect1_dropShadow" result="shape"/>
<feColorMatrix in="SourceAlpha" type="matrix" values="0 0 0 0 0 0 0 0 0 0 0 0 0 0 0 0 0 0 127 0" result="hardAlpha"/>
<feOffset dx="-0.0888993" dy="-0.0888993"/>
<feGaussianBlur stdDeviation="0.666744"/>
<feComposite in2="hardAlpha" operator="arithmetic" k2="-1" k3="1"/>
<feColorMatrix type="matrix" values="0 0 0 0 0 0 0 0 0 0 0 0 0 0 0 0 0 0 0.4 0"/>
<feBlend mode="normal" in2="shape" result="effect2_innerShadow"/>
</filter>
<linearGradient id="paint0_linear" x1="22.5894" y1="11.1421" x2="59.207" y2="20.8629" gradientUnits="userSpaceOnUse">
<stop stop-color="#D5EEFF"/>
<stop offset="1" stop-color="#6DBFFA"/>
</linearGradient>
<linearGradient id="paint1_linear" x1="26.8" y1="23.9699" x2="16.7079" y2="13.1903" gradientUnits="userSpaceOnUse">
<stop stop-color="#599AC1"/>
<stop offset="1" stop-color="#EEF8FF" stop-opacity="0"/>
</linearGradient>
<linearGradient id="paint2_linear" x1="39.0229" y1="20.5116" x2="7.34392" y2="45.7679" gradientUnits="userSpaceOnUse">
<stop stop-color="#3184B5"/>
<stop offset="1" stop-color="white" stop-opacity="0"/>
</linearGradient>
<linearGradient id="paint3_linear" x1="17.8635" y1="42.3694" x2="10.515" y2="21.3152" gradientUnits="userSpaceOnUse">
<stop stop-color="#002134"/>
<stop offset="1" stop-color="#00395A" stop-opacity="0"/>
</linearGradient>
</defs>
</svg>
